# xmcd
#
# Track frame offsets:
#	150
#	3710
#	7217
#	17277
#	25747
#	31119
#	33920
#	38812
#	43240
#	45145
#	51470
#	64380
#	75682
#	78685
#	85350
#	93507
#	101285
#	110252
#	117572
#	126650
#	134540
#	139902
#	144895
#	152462
#	159505
#	167467
#	174017
#	224380
#	231547
#	238684
#	244755
#	249545
#	256135
#	268917
#	273957
#	280287
#	283960
#
# Disc length: 3897 seconds
#
# Revision: 1
# Processed by: cddbd v1.5.2PL0 Copyright (c) Steve Scherf et al.
# Submitted via: audiograbber 1.83.01
#
DISCID=0b0f3725
DTITLE=Various Artist - Das isch Musig! - 4. Klasse, CD 2
DYEAR=1900
DGENRE=Musikschule
TTITLE0=Spur 51: Fez and Firlefanz, Das Gespenst
TTITLE1=Spur 52: Fez and Firlefanz, Roboter Robert
TTITLE2=Spur 53: Wilhelm Busch, Max und Moritz, 5. Streich
TTITLE3=Spur 54: King Singers, Poole, Wymondham Chants, Scherzo
TTITLE4=Spur 55: Swingle Singers, Country dances
TTITLE5=Spur 56: Klapperbretter, Lärmbrauch
TTITLE6=Spur 57: Flaschenspiel, Ländler
TTITLE7=Spur 58: Singende Säge
TTITLE8=Spur 59: Spiel auf dem Blatt
TTITLE9=Spur 60: Bauernmusik, Mundharmonika, Kamm, chlefli, Löffel, Besen, drei
TTITLE9=maultrommeln, Kistenbass
TTITLE10=Spur 61: St. Louis Shuffle, Fletcher Henderson
TTITLE11=Spur 62: Steel Band, Guantanamera
TTITLE12=Spur 63: Schofar, Judaïsme
TTITLE13=Spur 64: Begleitmusik für Davids Psalmen, Judaïsme
TTITLE14=Spur 65: Aus der Synagoge, Judaïsme
TTITLE15=Spur 66: Liturgie Chrysostomus, Priidite, piklonimsya, Sergei Rachmani
TTITLE15=nov
TTITLE16=Spur 67: Pera ston pera kambo, Griechenland
TTITLE17=Spur 68: Tala'al-badru'alaina, Ägypten
TTITLE18=Spur 69: Spi, mladjénec, Russland
TTITLE19=Spur 70: Schyau, China
TTITLE20=Spur 71: D'esos caballos, Mexico
TTITLE21=Spur 72: Kumbaya, Afrika
TTITLE22=Spur 73: J.S.Bach, Bourrée
TTITLE23=Spur 74: Meedle Striichmusig, Buona fortuna
TTITLE24=Spur 75: Gli Scapoli, Edvard Grieg: Badn lat
TTITLE25=Spur 76: Tuvalu, Polynesien
TTITLE26=Spur 77: Nikolay Rimsky-Korsakov: Scheherazade, Einleitung und 1. Satz
TTITLE27=Spur 78: Bächlein, Lyrische Stücke, Edvard Grieg
TTITLE28=Spur 79: Nana, 7 canciones populares españoles, Manuel de Falla
TTITLE29=Spur 80: Fire Engine, Film-Musik, Berhard Herrmann
TTITLE30=Spur 81: Russischer Tanz: Trepak (Bauerntanz), Nussknackersuite, Peter
TTITLE30=Tschaikowsky
TTITLE31=Spur 82: Kirkis' dance, Tanz mit Tiermasken
TTITLE32=Spur 83: Kaminfegertanz, Chim Chim Cher-ee, Mary Poppins
TTITLE33=Spur 84: Weltliche Musik des griechischen Altertums: Epitaph of Seikil
TTITLE33=os
TTITLE34=Spur 85: Gregorianik um 900: Niederaltaicher Scholaren
TTITLE35=Spur 86: 16. Jahrhundert: Es wolt ein Fraw zum Weine gan
TTITLE36=Spur 87: Heutige religiöse Gesänge: Missa Luba, Kyrie
EXTD=
EXTT0=
EXTT1=
EXTT2=
EXTT3=
EXTT4=
EXTT5=
EXTT6=
EXTT7=
EXTT8=
EXTT9=
EXTT10=
EXTT11=
EXTT12=
EXTT13=
EXTT14=
EXTT15=
EXTT16=
EXTT17=
EXTT18=
EXTT19=
EXTT20=
EXTT21=
EXTT22=
EXTT23=
EXTT24=
EXTT25=
EXTT26=
EXTT27=
EXTT28=
EXTT29=
EXTT30=
EXTT31=
EXTT32=
EXTT33=
EXTT34=
EXTT35=
EXTT36=
PLAYORDER=
